# xmcd
#
# Track frame offsets:
#	150
#	24852
#	45806
#	73049
#	91574
#	115103
#	131831
#	147227
#	183429
#	214299
#	236427
#	261015
#	294057
#
# Disc length: 4347 seconds
#
# Revision: 0
# Processed by: cddbd v1.5.1PL2 Copyright (c) Steve Scherf et al.
# Submitted via: EasyCDDAExtractor 8.2.3.1
#
DISCID=a910f90d
DTITLE=Paul Barrere and Fred Tackett - Grand Lido Negril - Jamaica 01-27-05 (sbd
DTITLE=)
DYEAR=2005
DGENRE=Blues
TTITLE0=Ain't Hand Enough Fun
TTITLE1=Hate To Lose Your Lovin'
TTITLE2=Heaven Forsaken
TTITLE3=Two Trains
TTITLE4=Rocket In My Pocket
TTITLE5=Trouble
TTITLE6=Roll Um Easy
TTITLE7=Clownin'
TTITLE8=Tears Of Rage
TTITLE9=Missin' You
TTITLE10=Old Folks Boogie
TTITLE11=Fool Yourself
TTITLE12=Down On The Farm
EXTD=
EXTT0=
EXTT1=
EXTT2=
EXTT3=
EXTT4=
EXTT5=
EXTT6=
EXTT7=
EXTT8=
EXTT9=
EXTT10=
EXTT11=
EXTT12=
PLAYORDER=
